<mxfile host="app.diagrams.net" modified="2022-12-06T16:24:40.620Z" agent="5.0 (Macintosh; Intel Mac OS X 10_15_7) AppleWebKit/537.36 (KHTML, like Gecko) Chrome/107.0.0.0 Safari/537.36" etag="4l0ze2U7dbA9H8lgC1xj" version="20.6.0" type="github">
  <diagram id="3228e29e-7158-1315-38df-8450db1d8a1d" name="Page-1">
    <mxGraphModel dx="950" dy="1730" grid="0" gridSize="10" guides="1" tooltips="1" connect="1" arrows="1" fold="1" page="1" pageScale="1" pageWidth="800" pageHeight="310" background="#EFF1F3" math="0" shadow="0">
      <root>
        <mxCell id="0" />
        <mxCell id="1" parent="0" />
        <mxCell id="Zxyhw3o_makbFYxT9f12-17" value="" style="rounded=1;whiteSpace=wrap;html=1;dashed=1;strokeWidth=5;fillColor=none;" parent="1" vertex="1">
          <mxGeometry x="185" y="-98" width="476" height="561" as="geometry" />
        </mxCell>
        <mxCell id="Zxyhw3o_makbFYxT9f12-7" value="" style="rounded=1;whiteSpace=wrap;html=1;dashed=1;strokeWidth=5;fillColor=none;" parent="1" vertex="1">
          <mxGeometry x="185" y="-281" width="474" height="170" as="geometry" />
        </mxCell>
        <mxCell id="Zxyhw3o_makbFYxT9f12-2" value="&lt;font style=&quot;font-size: 18px&quot;&gt;socket接口&lt;/font&gt;" style="rounded=1;whiteSpace=wrap;html=1;strokeColor=none;labelBackgroundColor=none;fillColor=#FDD276;" parent="1" vertex="1">
          <mxGeometry x="220" y="-116" width="397.5" height="26" as="geometry" />
        </mxCell>
        <mxCell id="Zxyhw3o_makbFYxT9f12-4" value="&lt;span style=&quot;color: rgb(51, 51, 51); font-family: &amp;quot;open sans&amp;quot;, &amp;quot;clear sans&amp;quot;, &amp;quot;helvetica neue&amp;quot;, helvetica, arial, sans-serif;&quot;&gt;&lt;font style=&quot;font-size: 18px&quot;&gt;socket&lt;/font&gt;&lt;/span&gt;" style="rounded=1;whiteSpace=wrap;html=1;strokeColor=none;fillColor=#9AC7BF;labelBackgroundColor=none;" parent="1" vertex="1">
          <mxGeometry x="251" y="-142" width="86" height="36" as="geometry" />
        </mxCell>
        <mxCell id="Zxyhw3o_makbFYxT9f12-8" value="&lt;font style=&quot;font-size: 18px&quot;&gt;tcp数据&lt;/font&gt;" style="rounded=1;whiteSpace=wrap;html=1;strokeColor=none;fillColor=#4A919B;" parent="1" vertex="1">
          <mxGeometry x="252.5" y="-212" width="83" height="37.25" as="geometry" />
        </mxCell>
        <mxCell id="Zxyhw3o_makbFYxT9f12-9" value="&lt;div style=&quot;font-family: &amp;quot;menlo&amp;quot; , &amp;quot;monaco&amp;quot; , &amp;quot;courier new&amp;quot; , monospace ; line-height: 23px&quot;&gt;&lt;span style=&quot;&quot;&gt;&lt;font style=&quot;font-size: 18px&quot;&gt;send&lt;/font&gt;&lt;/span&gt;&lt;/div&gt;" style="rounded=1;whiteSpace=wrap;html=1;strokeColor=none;fillColor=#9AC7BF;labelBackgroundColor=none;" parent="1" vertex="1">
          <mxGeometry x="251" y="-96" width="86" height="36" as="geometry" />
        </mxCell>
        <mxCell id="Zxyhw3o_makbFYxT9f12-11" value="&lt;font style=&quot;font-size: 24px&quot;&gt;用户态&lt;/font&gt;" style="text;html=1;strokeColor=none;fillColor=none;align=center;verticalAlign=middle;whiteSpace=wrap;rounded=0;dashed=1;" parent="1" vertex="1">
          <mxGeometry x="377.25" y="-254" width="132.5" height="20" as="geometry" />
        </mxCell>
        <mxCell id="Zxyhw3o_makbFYxT9f12-12" value="&lt;font style=&quot;font-size: 24px&quot;&gt;内核态&lt;/font&gt;" style="text;html=1;strokeColor=none;align=center;verticalAlign=middle;whiteSpace=wrap;rounded=0;dashed=1;labelBackgroundColor=none;" parent="1" vertex="1">
          <mxGeometry x="397" y="-72" width="102" height="20" as="geometry" />
        </mxCell>
        <mxCell id="Zxyhw3o_makbFYxT9f12-14" value="&lt;span style=&quot;color: rgb(51, 51, 51); font-family: &amp;quot;open sans&amp;quot;, &amp;quot;clear sans&amp;quot;, &amp;quot;helvetica neue&amp;quot;, helvetica, arial, sans-serif; font-size: 18px;&quot;&gt;&lt;font style=&quot;font-size: 18px&quot;&gt;send buffer&lt;/font&gt;&lt;/span&gt;" style="rounded=1;whiteSpace=wrap;html=1;strokeColor=none;fontSize=18;fillColor=#9AC7BF;labelBackgroundColor=none;" parent="1" vertex="1">
          <mxGeometry x="376" y="-40" width="135" height="52" as="geometry" />
        </mxCell>
        <mxCell id="Zxyhw3o_makbFYxT9f12-16" value="&lt;span style=&quot;color: rgb(51 , 51 , 51) ; font-family: &amp;quot;open sans&amp;quot; , &amp;quot;clear sans&amp;quot; , &amp;quot;helvetica neue&amp;quot; , &amp;quot;helvetica&amp;quot; , &amp;quot;arial&amp;quot; , sans-serif&quot;&gt;&lt;font style=&quot;font-size: 16px;&quot;&gt;socket(AF_INET, SOCK_STREAM, 0);&lt;/font&gt;&lt;/span&gt;" style="text;html=1;strokeColor=none;align=center;verticalAlign=middle;whiteSpace=wrap;rounded=0;dashed=1;labelBackgroundColor=none;" parent="1" vertex="1">
          <mxGeometry x="23" y="-178" width="162" height="67" as="geometry" />
        </mxCell>
        <mxCell id="Zxyhw3o_makbFYxT9f12-18" value="&lt;span style=&quot;color: rgb(51, 51, 51); font-family: &amp;quot;open sans&amp;quot;, &amp;quot;clear sans&amp;quot;, &amp;quot;helvetica neue&amp;quot;, helvetica, arial, sans-serif; font-size: 18px;&quot;&gt;&lt;font style=&quot;font-size: 18px&quot;&gt;传输层&lt;/font&gt;&lt;/span&gt;" style="rounded=1;whiteSpace=wrap;html=1;strokeColor=none;fontSize=18;fillColor=#9AC7BF;labelBackgroundColor=none;" parent="1" vertex="1">
          <mxGeometry x="376" y="32" width="135" height="52" as="geometry" />
        </mxCell>
        <mxCell id="Zxyhw3o_makbFYxT9f12-19" value="&lt;span style=&quot;color: rgb(51, 51, 51); font-family: &amp;quot;open sans&amp;quot;, &amp;quot;clear sans&amp;quot;, &amp;quot;helvetica neue&amp;quot;, helvetica, arial, sans-serif; font-size: 18px;&quot;&gt;网络层&lt;/span&gt;" style="rounded=1;whiteSpace=wrap;html=1;strokeColor=none;fontSize=18;fillColor=#9AC7BF;labelBackgroundColor=none;" parent="1" vertex="1">
          <mxGeometry x="376" y="104" width="135" height="52" as="geometry" />
        </mxCell>
        <mxCell id="Zxyhw3o_makbFYxT9f12-22" value="" style="pointerEvents=1;shadow=0;dashed=0;html=1;strokeColor=none;labelPosition=center;verticalLabelPosition=bottom;verticalAlign=top;align=center;outlineConnect=0;shape=mxgraph.veeam2.network_card;fillColor=#535E80;" parent="1" vertex="1">
          <mxGeometry x="332.75" y="489" width="169" height="95" as="geometry" />
        </mxCell>
        <mxCell id="Zxyhw3o_makbFYxT9f12-25" value="" style="ellipse;whiteSpace=wrap;html=1;aspect=fixed;dashed=1;fontSize=18;strokeWidth=30;fillColor=none;strokeColor=#4A919B;rotation=45;dashPattern=1 1;" parent="1" vertex="1">
          <mxGeometry x="383" y="330" width="110" height="110" as="geometry" />
        </mxCell>
        <mxCell id="Zxyhw3o_makbFYxT9f12-26" value="" style="ellipse;whiteSpace=wrap;html=1;aspect=fixed;dashed=1;fontSize=18;strokeWidth=30;fillColor=none;rotation=75;dashPattern=1 1;strokeColor=#535E80;" parent="1" vertex="1">
          <mxGeometry x="383" y="330" width="110" height="110" as="geometry" />
        </mxCell>
        <mxCell id="Zxyhw3o_makbFYxT9f12-27" value="Ring Buffer" style="text;html=1;strokeColor=none;fillColor=none;align=center;verticalAlign=middle;whiteSpace=wrap;rounded=0;dashed=1;dashPattern=1 1;fontSize=18;" parent="1" vertex="1">
          <mxGeometry x="386.25" y="291" width="106" height="24" as="geometry" />
        </mxCell>
        <mxCell id="Zxyhw3o_makbFYxT9f12-28" value="网卡" style="text;html=1;strokeColor=none;fillColor=none;align=center;verticalAlign=middle;whiteSpace=wrap;rounded=0;dashed=1;dashPattern=1 1;fontSize=18;" parent="1" vertex="1">
          <mxGeometry x="382.75" y="473" width="106" height="24" as="geometry" />
        </mxCell>
        <mxCell id="Zxyhw3o_makbFYxT9f12-6" value="" style="shape=flexArrow;endArrow=classic;html=1;strokeColor=none;fillColor=#9AC7BF;labelBackgroundColor=none;" parent="1" edge="1">
          <mxGeometry width="50" height="50" relative="1" as="geometry">
            <mxPoint x="183" y="-131.92000000000002" as="sourcePoint" />
            <mxPoint x="233" y="-131.92000000000002" as="targetPoint" />
          </mxGeometry>
        </mxCell>
        <mxCell id="Zxyhw3o_makbFYxT9f12-43" value="" style="endArrow=none;dashed=1;html=1;labelBackgroundColor=none;fontSize=18;fontColor=#9AC7BF;fillColor=#9AC7BF;startArrow=classic;startFill=1;strokeWidth=6;strokeColor=#F19C99;" parent="1" edge="1">
          <mxGeometry width="50" height="50" relative="1" as="geometry">
            <mxPoint x="337" y="129" as="sourcePoint" />
            <mxPoint x="336.5" y="-170" as="targetPoint" />
          </mxGeometry>
        </mxCell>
        <mxCell id="Zxyhw3o_makbFYxT9f12-58" value="&lt;font style=&quot;font-size: 18px&quot;&gt;数据&lt;/font&gt;" style="rounded=1;whiteSpace=wrap;html=1;strokeColor=none;fillColor=#4A919B;" parent="1" vertex="1">
          <mxGeometry x="229" y="105.5" width="87.5" height="38" as="geometry" />
        </mxCell>
        <mxCell id="Zxyhw3o_makbFYxT9f12-59" value="&lt;font style=&quot;font-size: 18px&quot;&gt;TCP头&lt;/font&gt;" style="rounded=1;whiteSpace=wrap;html=1;strokeColor=none;fillColor=#6F7DAB;" parent="1" vertex="1">
          <mxGeometry x="149.5" y="105.5" width="79.5" height="38" as="geometry" />
        </mxCell>
        <mxCell id="Zxyhw3o_makbFYxT9f12-60" value="&lt;font style=&quot;font-size: 18px&quot;&gt;IP头&lt;/font&gt;" style="rounded=1;whiteSpace=wrap;html=1;strokeColor=none;fillColor=#F19C99;" parent="1" vertex="1">
          <mxGeometry x="70" y="105.5" width="79.5" height="38" as="geometry" />
        </mxCell>
        <mxCell id="Zxyhw3o_makbFYxT9f12-65" value="&lt;font style=&quot;font-size: 18px&quot;&gt;数据&lt;/font&gt;" style="rounded=1;whiteSpace=wrap;html=1;strokeColor=none;fillColor=#4A919B;" parent="1" vertex="1">
          <mxGeometry x="229" y="36.5" width="87.5" height="38" as="geometry" />
        </mxCell>
        <mxCell id="Zxyhw3o_makbFYxT9f12-66" value="&lt;font style=&quot;font-size: 18px&quot;&gt;TCP头&lt;/font&gt;" style="rounded=1;whiteSpace=wrap;html=1;strokeColor=none;fillColor=#6F7DAB;" parent="1" vertex="1">
          <mxGeometry x="149.5" y="36.5" width="79.5" height="38" as="geometry" />
        </mxCell>
        <mxCell id="c6_7_6UL716TAIJUGsGF-1" value="" style="shape=image;verticalLabelPosition=bottom;verticalAlign=top;imageAspect=0;aspect=fixed;image=data:image/svg+xml,PHN2ZyB4bWxuczp4bGluaz0iaHR0cDovL3d3dy53My5vcmcvMTk5OS94bGluayIgeG1sbnM9Imh0dHA6Ly93d3cudzMub3JnLzIwMDAvc3ZnIiBoZWlnaHQ9IjIwMCIgd2lkdGg9IjIwMCIgdmVyc2lvbj0iMS4xIiB2aWV3Qm94PSIwIDAgMTAyNCAxMDI0IiBjbGFzcz0iaWNvbiI+PGRlZnM+PHN0eWxlIHR5cGU9InRleHQvY3NzIj5AZm9udC1mYWNlIHsgZm9udC1mYW1pbHk6IGZlZWRiYWNrLWljb25mb250OyBzcmM6IHVybCgiLy9hdC5hbGljZG4uY29tL3QvZm9udF8xMDMxMTU4X3U2OXc4eWh4ZHUud29mZjI/dD0xNjMwMDMzNzU5OTQ0IikgZm9ybWF0KCJ3b2ZmMiIpLCB1cmwoIi8vYXQuYWxpY2RuLmNvbS90L2ZvbnRfMTAzMTE1OF91Njl3OHloeGR1LndvZmY/dD0xNjMwMDMzNzU5OTQ0IikgZm9ybWF0KCJ3b2ZmIiksIHVybCgiLy9hdC5hbGljZG4uY29tL3QvZm9udF8xMDMxMTU4X3U2OXc4eWh4ZHUudHRmP3Q9MTYzMDAzMzc1OTk0NCIpIGZvcm1hdCgidHJ1ZXR5cGUiKTsgfSYjeGE7PC9zdHlsZT48L2RlZnM+PHBhdGggZmlsbD0iIzRBOTE5QiIgZD0iTTgyOS45NTIgMjcxLjM2aC0xMjYuOTc2di01MS4yYTc2LjI4OCA3Ni4yODggMCAwIDAtNzUuNzc2LTc2LjI4OGgtMjU2YTc2LjI4OCA3Ni4yODggMCAwIDAtNzUuNzc2IDc2Ljh2NTEuMkgxNjguNDQ4YTI1LjYgMjUuNiAwIDAgMCAwIDUxLjJoNjYxLjUwNGEyNS42IDI1LjYgMCAwIDAgMC01MS43MTJ6IG0tMTc4LjE3NiAwaC0zMDcuMnYtNTEuMmEyNi4xMTIgMjYuMTEyIDAgMCAxIDI1LjYtMjUuNmgyNTZhMjQuNTc2IDI0LjU3NiAwIDAgMSAyNC41NzYgMjUuNnpNNDQ4LjUxMiA2NzcuMzc2VjM5OC4zMzZhMjUuNiAyNS42IDAgMCAwLTUxLjIgMHYyNzkuMDRhMjUuNiAyNS42IDAgMCAwIDUxLjIgMHpNNjAxLjA4OCA2NzcuMzc2VjM5OC4zMzZhMjUuNiAyNS42IDAgMCAwLTUxLjIgMHYyNzkuMDRhMjUuNiAyNS42IDAgMCAwIDUxLjIgMHoiLz48cGF0aCBmaWxsPSIjNEE5MTlCIiBkPSJNNzM1Ljc0NCAzNDYuNjI0YTI1LjYgMjUuNiAwIDAgMC0yNS42IDI1LjZ2MzgxLjQ0YTEwMi40IDEwMi40IDAgMCAxLTEwMi40IDEwMi40SDM5MC42NTZhMTAyLjQgMTAyLjQgMCAwIDEtMTAyLjQtMTAyLjRWMzcyLjIyNGEyNS42IDI1LjYgMCAwIDAtNTEuMiAwdjM4MS40NGExNTMuNiAxNTMuNiAwIDAgMCAxNTMuNiAxNTMuNmgyMTcuNmExNTMuNiAxNTMuNiAwIDAgMCAxNTMuNi0xNTMuNlYzNzIuMjI0YTI1LjYgMjUuNiAwIDAgMC0yNi4xMTItMjUuNnoiLz48L3N2Zz4=" parent="1" vertex="1">
          <mxGeometry x="243.75" y="259" width="89" height="89" as="geometry" />
        </mxCell>
        <mxCell id="c6_7_6UL716TAIJUGsGF-16" value="" style="rounded=1;whiteSpace=wrap;html=1;strokeColor=default;fontSize=18;fillColor=#F19C99;labelBackgroundColor=none;align=center;" parent="1" vertex="1">
          <mxGeometry x="331" y="165" width="32.5" height="21" as="geometry" />
        </mxCell>
        <mxCell id="c6_7_6UL716TAIJUGsGF-17" value="data" style="text;html=1;strokeColor=none;fillColor=#F19C99;align=center;verticalAlign=middle;whiteSpace=wrap;rounded=0;fontFamily=Verdana;fontSize=11;" parent="1" vertex="1">
          <mxGeometry x="332.75" y="166" width="29" height="19" as="geometry" />
        </mxCell>
        <mxCell id="c6_7_6UL716TAIJUGsGF-18" value="" style="curved=1;endArrow=classic;html=1;rounded=0;fontFamily=Verdana;fontSize=11;strokeWidth=6;dashed=1;strokeColor=#F19C99;" parent="1" edge="1">
          <mxGeometry width="50" height="50" relative="1" as="geometry">
            <mxPoint x="334" y="143" as="sourcePoint" />
            <mxPoint x="412.5" y="173" as="targetPoint" />
            <Array as="points" />
          </mxGeometry>
        </mxCell>
        <mxCell id="c6_7_6UL716TAIJUGsGF-20" value="" style="curved=1;endArrow=classic;html=1;rounded=0;dashed=1;fontFamily=Verdana;fontSize=11;strokeColor=#F19C99;strokeWidth=6;" parent="1" edge="1">
          <mxGeometry width="50" height="50" relative="1" as="geometry">
            <mxPoint x="402.5" y="182" as="sourcePoint" />
            <mxPoint x="304" y="264.5" as="targetPoint" />
            <Array as="points">
              <mxPoint x="349.5" y="182" />
              <mxPoint x="377" y="232" />
            </Array>
          </mxGeometry>
        </mxCell>
        <mxCell id="W6XYvXyFujzzuSwvNvle-1" value="" style="rounded=0;whiteSpace=wrap;html=1;strokeColor=none;fontSize=18;fillColor=#4A919B;labelBackgroundColor=none;" vertex="1" parent="1">
          <mxGeometry x="427" y="191.5" width="35" height="43" as="geometry" />
        </mxCell>
        <mxCell id="W6XYvXyFujzzuSwvNvle-2" value="" style="rounded=1;whiteSpace=wrap;html=1;strokeColor=#9AC7BF;fontSize=18;fillColor=none;labelBackgroundColor=none;dashed=1;strokeWidth=3;" vertex="1" parent="1">
          <mxGeometry x="377" y="171.5" width="135" height="102" as="geometry" />
        </mxCell>
        <mxCell id="W6XYvXyFujzzuSwvNvle-3" value="" style="rounded=1;whiteSpace=wrap;html=1;strokeColor=none;fontSize=18;fillColor=#F19C99;labelBackgroundColor=none;" vertex="1" parent="1">
          <mxGeometry x="423.25" y="181.5" width="42.5" height="17" as="geometry" />
        </mxCell>
        <mxCell id="W6XYvXyFujzzuSwvNvle-4" value="&lt;font color=&quot;#333333&quot;&gt;qdisc&lt;/font&gt;" style="text;html=1;strokeColor=none;fillColor=none;align=center;verticalAlign=middle;whiteSpace=wrap;rounded=0;" vertex="1" parent="1">
          <mxGeometry x="375" y="191" width="60" height="30" as="geometry" />
        </mxCell>
        <mxCell id="W6XYvXyFujzzuSwvNvle-5" value="" style="rounded=1;whiteSpace=wrap;html=1;strokeColor=none;fontSize=18;fillColor=#F19C99;labelBackgroundColor=none;" vertex="1" parent="1">
          <mxGeometry x="423.25" y="199.5" width="42.5" height="17" as="geometry" />
        </mxCell>
        <mxCell id="W6XYvXyFujzzuSwvNvle-6" value="" style="rounded=1;whiteSpace=wrap;html=1;strokeColor=none;fontSize=18;fillColor=#F19C99;labelBackgroundColor=none;" vertex="1" parent="1">
          <mxGeometry x="423.25" y="217.5" width="42.5" height="17" as="geometry" />
        </mxCell>
        <mxCell id="W6XYvXyFujzzuSwvNvle-7" value="&lt;span style=&quot;color: rgb(51, 51, 51); font-family: &amp;quot;open sans&amp;quot;, &amp;quot;clear sans&amp;quot;, &amp;quot;helvetica neue&amp;quot;, helvetica, arial, sans-serif; font-size: 18px;&quot;&gt;数据链路层&lt;/span&gt;" style="text;html=1;strokeColor=none;fillColor=none;align=center;verticalAlign=middle;whiteSpace=wrap;rounded=0;dashed=1;" vertex="1" parent="1">
          <mxGeometry x="394.75" y="239.5" width="97" height="30" as="geometry" />
        </mxCell>
        <mxCell id="W6XYvXyFujzzuSwvNvle-12" value="" style="rounded=1;whiteSpace=wrap;html=1;strokeColor=default;fontSize=18;fillColor=#4A919B;labelBackgroundColor=none;align=center;" vertex="1" parent="1">
          <mxGeometry x="428.25" y="186" width="32.5" height="21" as="geometry" />
        </mxCell>
        <mxCell id="W6XYvXyFujzzuSwvNvle-13" value="data" style="text;html=1;strokeColor=none;fillColor=none;align=center;verticalAlign=middle;whiteSpace=wrap;rounded=0;fontFamily=Verdana;fontSize=11;" vertex="1" parent="1">
          <mxGeometry x="430" y="187" width="29" height="19" as="geometry" />
        </mxCell>
        <mxCell id="W6XYvXyFujzzuSwvNvle-14" value="" style="rounded=1;whiteSpace=wrap;html=1;strokeColor=default;fontSize=18;fillColor=#4A919B;labelBackgroundColor=none;align=center;" vertex="1" parent="1">
          <mxGeometry x="428.5" y="207.5" width="32.5" height="21" as="geometry" />
        </mxCell>
        <mxCell id="W6XYvXyFujzzuSwvNvle-15" value="data" style="text;html=1;strokeColor=none;fillColor=none;align=center;verticalAlign=middle;whiteSpace=wrap;rounded=0;fontFamily=Verdana;fontSize=11;" vertex="1" parent="1">
          <mxGeometry x="430.25" y="208.5" width="29" height="19" as="geometry" />
        </mxCell>
      </root>
    </mxGraphModel>
  </diagram>
</mxfile>
